<svg width="178" height="111" viewBox="0 0 178 111" fill="none" xmlns="http://www.w3.org/2000/svg">
<path d="M17.4049 94.6747C17.4049 96.2048 17.2136 97.7349 16.8311 99.0737C16.4485 100.413 15.8748 101.56 15.1097 102.325C14.3447 103.281 13.3884 103.855 12.432 104.429C11.2845 105.003 9.94563 105.194 8.6068 105.194C7.0767 105.194 5.92913 105.003 4.78155 104.429C3.63398 104.047 2.86893 103.281 2.10388 102.516C1.33884 101.751 0.956313 100.604 0.573789 99.265C0.191264 97.9261 0 96.5873 0 94.866C0 93.3359 0.191264 91.8058 0.573789 90.6582C0.956313 89.5106 1.5301 88.363 2.29515 87.4067C3.0602 86.4504 4.01651 85.8766 5.16408 85.3029C6.31165 84.7291 7.65049 84.5378 8.98932 84.5378C10.3282 84.5378 11.667 84.7291 12.8146 85.1116C13.9621 85.4941 14.7272 86.2592 15.4922 87.0242C16.2573 87.7893 16.6398 88.9368 17.0223 90.0844C17.2136 91.6145 17.4049 92.9533 17.4049 94.6747ZM14.7272 94.866C14.7272 93.7184 14.5359 92.7621 14.3447 91.6145C14.1534 90.6582 13.7709 89.7019 13.3884 89.1281C13.0058 88.363 12.2408 87.7893 11.4757 87.4067C10.7107 87.0242 9.75437 86.8329 8.6068 86.8329C7.45922 86.8329 6.50291 87.0242 5.73786 87.4067C4.97282 87.7893 4.39903 88.363 3.82524 89.1281C3.44272 89.8931 3.06019 90.6582 2.86893 91.6145C2.67767 92.5708 2.48641 93.5271 2.48641 94.6747C2.48641 95.8223 2.48641 96.9698 2.67767 97.9262C2.86894 98.8825 3.25146 99.8388 3.63398 100.413C4.01651 101.178 4.59029 101.751 5.35534 102.134C6.12039 102.516 7.0767 102.708 8.22427 102.708C9.37185 102.708 10.3282 102.516 11.0932 102.134C11.8583 101.751 12.432 101.178 13.0058 100.413C13.3883 99.6475 13.7709 98.8825 13.9621 97.9262C14.5359 96.9698 14.7272 95.8223 14.7272 94.866Z" fill="#312B2D"/>
<path d="M33.6622 97.3525C33.6622 98.5 33.4709 99.6476 33.2796 100.604C33.0884 101.56 32.7058 102.325 32.1321 103.09C31.5583 103.855 30.9845 104.238 30.2194 104.62C29.4544 105.003 28.6893 105.194 27.733 105.194C27.3505 105.194 26.968 105.194 26.5855 105.003C26.2029 105.003 25.8204 104.812 25.6292 104.62C25.4379 104.429 25.0554 104.238 24.6728 104.047C24.2903 103.855 24.0991 103.473 23.7165 103.09V109.976V110.167L23.5253 110.358C23.5253 110.358 23.334 110.358 23.1427 110.358C22.9515 110.358 22.7602 110.358 22.569 110.358C22.3777 110.358 22.1864 110.358 21.9952 110.358C21.8039 110.358 21.6126 110.358 21.6126 110.358C21.6126 110.358 21.4214 110.358 21.4214 110.167V109.976V90.6583V90.467C21.4214 90.467 21.4214 90.2758 21.6126 90.2758C21.6126 90.2758 21.8039 90.2758 21.9952 90.2758C22.1864 90.2758 22.3777 90.2758 22.569 90.2758C22.7602 90.2758 22.9515 90.2758 23.1427 90.2758C23.334 90.2758 23.334 90.2758 23.5253 90.2758C23.5253 90.2758 23.7165 90.2758 23.7165 90.467V90.6583V92.5709C24.0991 92.1884 24.4816 91.8059 24.8641 91.4233C25.2466 91.0408 25.6292 90.8495 26.0117 90.6583C26.3942 90.467 26.7767 90.2758 27.1593 90.0845C27.5418 89.8932 27.9243 89.8932 28.4981 89.8932C29.4544 89.8932 30.2194 90.0845 30.9845 90.467C31.7495 90.8496 32.3233 91.4233 32.7059 91.9971C33.0884 92.5709 33.4709 93.5272 33.6622 94.2923C33.4709 95.2486 33.6622 96.2049 33.6622 97.3525ZM30.9845 97.5437C30.9845 96.7787 30.9845 96.2049 30.7932 95.4398C30.602 94.8661 30.4107 94.101 30.2194 93.7185C30.0282 93.1447 29.6457 92.7622 29.2631 92.5709C28.8806 92.1884 28.3068 92.1884 27.733 92.1884C27.3505 92.1884 27.1592 92.1884 26.7767 92.3796C26.3942 92.5709 26.2029 92.5709 25.8204 92.7622C25.4379 92.9534 25.2466 93.336 24.8641 93.5272C24.4816 93.9097 24.0991 94.2923 23.7165 94.8661V100.413C24.4816 101.178 25.0554 101.943 25.6292 102.325C26.2029 102.708 26.968 103.09 27.5418 103.09C28.1156 103.09 28.6893 102.899 29.0719 102.708C29.4544 102.325 29.8369 101.943 30.2194 101.56C30.4107 100.986 30.7932 100.413 30.7932 99.8389C30.9845 98.8826 30.9845 98.3088 30.9845 97.5437Z" fill="#312B2D"/>
<path d="M48.9632 90.0845C49.3457 90.0845 49.537 90.0844 49.537 90.2757C49.7283 90.467 49.7282 90.6582 49.7282 90.8495V104.429V104.62L49.537 104.812C49.537 104.812 49.3457 104.812 49.1545 104.812C48.9632 104.812 48.7719 104.812 48.5807 104.812C48.3894 104.812 48.1982 104.812 48.0069 104.812C47.8156 104.812 47.6244 104.812 47.6244 104.812C47.4331 104.812 47.4331 104.812 47.4331 104.62V104.429V92.1883H40.5477V100.03C40.5477 100.986 40.7389 101.751 40.9302 102.134C41.1215 102.708 41.6952 102.899 42.4603 102.899C42.6516 102.899 42.8428 102.899 43.0341 102.899C43.2253 102.899 43.4166 102.899 43.6079 102.708C43.7991 102.708 43.7991 102.516 43.9904 102.516C44.1816 102.516 44.1817 102.516 44.1817 102.516H44.3729C44.3729 102.516 44.3729 102.516 44.5642 102.708C44.5642 102.708 44.5642 102.899 44.5642 103.09C44.5642 103.282 44.5642 103.282 44.5642 103.473C44.5642 103.855 44.5642 104.047 44.5642 104.238C44.5642 104.429 44.3729 104.62 44.3729 104.62C44.3729 104.62 44.1816 104.812 43.9904 104.812C43.7991 104.812 43.6079 105.003 43.4166 105.003C43.2253 105.003 43.0341 105.003 42.8428 105.194C42.6516 105.385 42.4603 105.194 42.0778 105.194C41.3127 105.194 40.7389 105.003 40.3564 105.003C39.7826 104.812 39.4001 104.429 39.2088 104.047C38.8263 103.664 38.635 103.09 38.4438 102.516C38.2525 101.943 38.2525 101.178 38.2525 100.413V92.1883H36.3399C36.1486 92.1883 36.1486 92.1883 35.9574 91.9971C35.9574 91.8058 35.7661 91.6145 35.7661 91.232C35.7661 91.0408 35.7661 90.8495 35.7661 90.6582C35.7661 90.467 35.7661 90.467 35.9574 90.2757C35.9574 90.2757 35.9574 90.0845 36.1486 90.0845H36.3399H38.2525V86.833V86.6417L38.4438 86.4505C38.4438 86.4505 38.635 86.4505 38.8263 86.2592C39.0176 86.2592 39.2088 86.2592 39.4001 86.2592C39.5914 86.2592 39.7826 86.2592 39.9739 86.2592C40.1651 86.2592 40.1651 86.2592 40.3564 86.4505L40.5477 86.6417V86.833V90.0845H48.9632ZM49.9195 85.8767C49.9195 86.4505 49.7283 86.833 49.537 87.0242C49.3457 87.2155 48.9632 87.4068 48.3894 87.4068C47.8156 87.4068 47.4331 87.2155 47.2418 87.0242C47.0506 86.833 46.8593 86.4505 46.8593 85.8767C46.8593 85.3029 47.0506 84.9204 47.2418 84.7291C47.4331 84.5378 47.8156 84.3466 48.3894 84.3466C48.9632 84.3466 49.3457 84.5378 49.537 84.7291C49.9195 84.9204 49.9195 85.3029 49.9195 85.8767Z" fill="#312B2D"/>
<path d="M66.7504 97.3525C66.7504 98.5 66.5591 99.4563 66.3679 100.413C65.9854 101.369 65.6028 102.134 65.029 102.899C64.4553 103.664 63.6902 104.047 62.9252 104.429C61.9689 104.812 61.0125 105.003 59.865 105.003C58.7174 105.003 57.7611 104.812 56.996 104.429C56.231 104.047 55.4659 103.664 54.8922 102.899C54.3184 102.134 53.9358 101.369 53.7446 100.604C53.5533 99.6476 53.3621 98.6913 53.3621 97.5437C53.3621 96.3961 53.5533 95.4398 53.7446 94.4835C53.9358 93.5272 54.5096 92.7622 55.0834 91.9971C55.6572 91.2321 56.4223 90.8496 57.1873 90.467C57.9524 90.0845 59.0999 89.8932 60.2475 89.8932C61.3951 89.8932 62.3514 90.0845 63.1164 90.467C63.8815 90.8496 64.6465 91.2321 65.2203 91.9971C65.7941 92.5709 66.1766 93.5272 66.3679 94.2923C66.7504 95.2486 66.7504 96.2049 66.7504 97.3525ZM64.264 97.5437C64.264 96.7787 64.264 96.0136 64.0727 95.4398C63.8815 94.6748 63.6902 94.101 63.3077 93.7185C62.9252 93.1447 62.5426 92.7622 61.9689 92.5709C61.3951 92.1884 60.8213 92.1884 60.0562 92.1884C59.2912 92.1884 58.7174 92.3796 58.1436 92.5709C57.5698 92.7622 57.1873 93.1447 56.8048 93.7185C56.4223 94.2923 56.231 94.8661 56.0397 95.4398C55.8485 96.2049 55.8485 96.7787 55.8485 97.5437C55.8485 98.3088 55.8485 99.0738 56.0397 99.6476C56.231 100.413 56.4223 100.986 56.8048 101.369C57.1873 101.943 57.5698 102.325 58.1436 102.517C58.7174 102.899 59.2912 102.899 60.0562 102.899C60.8213 102.899 61.3951 102.708 61.9689 102.517C62.5426 102.325 62.9252 101.943 63.3077 101.369C63.6902 100.795 63.8815 100.221 64.0727 99.6476C64.264 99.0738 64.264 98.3088 64.264 97.5437Z" fill="#312B2D"/>
<path d="M82.0514 104.429V104.62L81.8601 104.812C81.8601 104.812 81.6689 104.812 81.4776 104.812C81.2864 104.812 81.0951 104.812 80.9038 104.812C80.7126 104.812 80.5213 104.812 80.3301 104.812C80.1388 104.812 80.1388 104.812 79.9475 104.812C79.9475 104.812 79.7563 104.812 79.7563 104.62V104.429V96.2049C79.7563 95.4398 79.7563 94.8661 79.565 94.2923C79.3737 93.7185 79.1825 93.336 78.9912 92.9534C78.8 92.5709 78.4174 92.3797 78.0349 92.1884C77.6524 91.9971 77.2699 91.9971 76.6961 91.9971C76.1223 91.9971 75.5485 92.1884 74.7835 92.7622C74.2097 93.1447 73.4446 93.9097 72.8708 94.6748V104.429V104.62L72.6796 104.812C72.6796 104.812 72.4883 104.812 72.297 104.812C72.1058 104.812 71.9145 104.812 71.7233 104.812C71.532 104.812 71.3407 104.812 71.1495 104.812C70.9582 104.812 70.7669 104.812 70.7669 104.812C70.7669 104.812 70.5757 104.812 70.5757 104.62V104.429V90.467V90.2758C70.5757 90.2758 70.5757 90.0845 70.7669 90.0845C70.7669 90.0845 70.9582 90.0845 71.1495 90.0845C71.3407 90.0845 71.532 90.0845 71.7233 90.0845C71.9145 90.0845 72.1058 90.0845 72.297 90.0845C72.4883 90.0845 72.4883 90.0845 72.6796 90.0845L72.8708 90.2758V90.467V92.3796C73.6359 91.4233 74.4009 90.8496 75.166 90.467C75.931 90.0845 76.6961 89.8932 77.4611 89.8932C78.4174 89.8932 79.1825 90.0845 79.7563 90.2758C80.3301 90.6583 80.9038 91.0408 81.2864 91.6146C81.6689 92.1884 81.8601 92.7622 82.0514 93.5272C82.2427 94.2923 82.2427 95.0573 82.2427 96.0136V104.429H82.0514Z" fill="#312B2D"/>
<path d="M98.1174 103.664C98.1174 103.855 98.1174 104.047 98.1174 104.238C98.1174 104.429 98.1174 104.429 97.9261 104.62C97.9261 104.812 97.7349 104.812 97.7349 104.812H97.5436H86.8329C86.6416 104.812 86.6417 104.812 86.4504 104.812C86.2591 104.812 86.2591 104.812 86.2591 104.62C86.2591 104.429 86.0679 104.429 86.0679 104.238C86.0679 104.047 86.0679 103.855 86.0679 103.664C86.0679 103.473 86.0679 103.282 86.0679 103.09C86.0679 102.899 86.0679 102.708 86.2591 102.708C86.2591 102.517 86.4504 102.517 86.4504 102.325C86.4504 102.134 86.6416 102.134 86.8329 101.943L90.6582 97.735C91.6145 96.7787 92.1883 96.0136 92.762 95.2486C93.3358 94.4835 93.7184 93.7185 94.1009 93.1447C94.4834 92.5709 94.6747 91.9971 94.6747 91.4233C94.6747 90.8495 94.8659 90.467 94.8659 90.0845C94.8659 89.702 94.8659 89.1282 94.6747 88.7456C94.4834 88.3631 94.2921 87.9806 94.1009 87.7893C93.9096 87.4068 93.5271 87.2155 93.1446 87.0243C92.762 86.833 92.1883 86.833 91.8057 86.833C91.2319 86.833 90.6582 86.833 90.0844 87.0243C89.5106 87.2155 89.1281 87.4068 88.7455 87.5981C88.363 87.7893 87.9805 87.9806 87.7892 88.1719C87.2154 88.5544 87.0242 88.5544 86.8329 88.5544H86.6416L86.4504 88.3631C86.4504 88.3631 86.4504 88.1718 86.4504 87.9806C86.4504 87.7893 86.4504 87.5981 86.4504 87.4068C86.4504 87.2155 86.4504 87.0243 86.4504 87.0243C86.4504 86.833 86.4504 86.833 86.4504 86.6418C86.4504 86.6418 86.4504 86.4505 86.6416 86.4505L86.8329 86.2592C87.0242 86.068 87.2154 86.068 87.4067 85.8767C87.7892 85.6854 87.9805 85.4942 88.5543 85.3029C88.9368 85.1117 89.5106 84.9204 90.0844 84.9204C90.6582 84.7291 91.2319 84.7291 91.8057 84.7291C92.762 84.7291 93.5271 84.9204 94.2921 85.1117C95.0572 85.3029 95.631 85.6855 96.0135 86.2592C96.396 86.6418 96.7785 87.2155 96.9698 87.9806C97.1611 88.5544 97.3523 89.3194 97.3523 90.0845C97.3523 90.6583 97.3523 91.4233 97.1611 91.9971C96.9698 92.5709 96.7785 93.3359 96.396 94.101C96.0135 94.866 95.4397 95.6311 94.8659 96.5874C94.1009 97.5437 93.3358 98.5 92.1883 99.6476L89.1281 102.899H97.5436H97.7349L97.9261 103.09C97.9261 103.09 97.9261 103.282 98.1174 103.473C98.1174 103.473 98.1174 103.473 98.1174 103.664Z" fill="#312B2D"/>
<path d="M113.801 104.429V104.62L113.61 104.812C113.61 104.812 113.418 104.812 113.227 104.812C113.036 104.812 112.845 104.812 112.653 104.812C112.462 104.812 112.271 104.812 112.08 104.812C111.888 104.812 111.888 104.812 111.697 104.812C111.697 104.812 111.506 104.812 111.506 104.62V104.429V96.2048C111.506 95.4398 111.506 94.866 111.315 94.2922C111.123 93.7184 110.932 93.3359 110.741 92.9534C110.549 92.5709 110.167 92.3796 109.784 92.1883C109.402 91.9971 109.019 91.9971 108.446 91.9971C107.872 91.9971 107.298 92.1883 106.533 92.7621C105.959 93.1446 105.194 93.9097 104.62 94.6747V104.429V104.62L104.429 104.812C104.429 104.812 104.238 104.812 104.047 104.812C103.855 104.812 103.664 104.812 103.473 104.812C103.282 104.812 103.09 104.812 102.899 104.812C102.708 104.812 102.516 104.812 102.516 104.812C102.516 104.812 102.325 104.812 102.325 104.62V104.429V83.7728V83.5815L102.516 83.3903C102.516 83.3903 102.708 83.3903 102.899 83.3903C103.09 83.3903 103.282 83.3903 103.473 83.3903C103.664 83.3903 103.855 83.3903 104.047 83.3903C104.238 83.3903 104.238 83.3903 104.429 83.3903C104.429 83.3903 104.62 83.3903 104.62 83.5815V83.7728V92.1883C105.385 91.4233 105.959 90.8495 106.724 90.467C107.489 90.0844 108.254 89.8932 108.828 89.8932C109.784 89.8932 110.549 90.0844 111.123 90.2757C111.697 90.6582 112.271 91.0408 112.653 91.6145C113.036 92.1883 113.227 92.7621 113.418 93.5272C113.61 94.2922 113.61 95.0573 113.61 96.0136V104.429H113.801Z" fill="#0FADCE" stroke="#0FADCE" stroke-miterlimit="10"/>
<path d="M129.867 96.9699C129.867 97.3524 129.676 97.735 129.484 97.735C129.293 97.9262 129.102 97.9262 128.719 97.9262H119.921C119.921 98.6913 119.921 99.4563 120.113 100.03C120.304 100.604 120.495 101.178 120.878 101.56C121.26 101.943 121.643 102.325 122.217 102.517C122.79 102.708 123.555 102.899 124.32 102.899C124.894 102.899 125.468 102.899 126.042 102.708C126.616 102.517 126.998 102.517 127.381 102.325C127.763 102.134 127.954 102.134 128.337 101.943C128.528 101.751 128.719 101.751 128.911 101.751H129.102C129.102 101.751 129.293 101.751 129.293 101.943C129.293 101.943 129.293 102.134 129.293 102.325C129.293 102.517 129.293 102.517 129.293 102.708C129.293 102.899 129.293 102.899 129.293 103.09C129.293 103.282 129.293 103.282 129.293 103.282V103.473C129.293 103.473 129.293 103.664 129.102 103.664C129.102 103.664 128.911 103.855 128.528 103.855C128.337 104.047 127.954 104.047 127.572 104.238C127.189 104.429 126.616 104.429 126.042 104.62C125.468 104.812 124.894 104.812 124.32 104.812C123.173 104.812 122.217 104.62 121.451 104.238C120.686 103.855 119.921 103.473 119.348 102.899C118.774 102.325 118.391 101.56 118.009 100.604C117.626 99.6476 117.626 98.5 117.626 97.3524C117.626 96.2049 117.817 95.0573 118.009 94.101C118.391 93.1447 118.774 92.3796 119.348 91.6146C119.921 91.0408 120.686 90.467 121.451 90.0845C122.217 89.702 123.173 89.5107 124.129 89.5107C125.277 89.5107 126.042 89.702 126.807 90.0845C127.572 90.467 128.146 90.8495 128.719 91.4233C129.293 91.9971 129.484 92.7621 129.867 93.5272C130.058 94.2922 130.25 95.2486 130.25 96.0136V96.9699H129.867ZM127.381 96.2049C127.381 94.866 127.189 93.7185 126.424 93.1447C125.85 92.3796 124.894 91.9971 123.747 91.9971C123.173 91.9971 122.599 92.1884 122.217 92.3796C121.834 92.5709 121.451 92.9534 121.069 93.3359C120.686 93.7185 120.495 94.101 120.304 94.6748C120.113 95.2485 120.113 95.8223 120.113 96.3961H127.381V96.2049Z" fill="#0FADCE" stroke="#0FADCE" stroke-miterlimit="10"/>
<path d="M143.829 104.429C143.829 104.62 143.829 104.62 143.638 104.62C143.638 104.62 143.447 104.812 143.255 104.812C143.064 104.812 142.873 104.812 142.682 104.812C142.49 104.812 142.299 104.812 142.108 104.812C141.917 104.812 141.917 104.812 141.725 104.62L141.534 104.429V103.09C140.96 103.664 140.195 104.238 139.621 104.62C138.856 105.003 138.091 105.194 137.326 105.194C136.561 105.194 135.987 105.194 135.414 105.003C134.84 104.812 134.266 104.62 133.884 104.238C133.501 103.855 133.118 103.473 132.927 102.899C132.736 102.325 132.545 101.751 132.545 101.178C132.545 100.413 132.736 99.6476 132.927 99.0738C133.31 98.5 133.692 97.9262 134.266 97.5437C134.84 97.1612 135.605 96.9699 136.37 96.7787C137.135 96.5874 138.091 96.5874 139.239 96.5874H141.151V95.4398C141.151 94.866 141.151 94.4835 140.96 94.101C140.769 93.7185 140.578 93.3359 140.386 93.1447C140.195 92.9534 139.813 92.5709 139.43 92.5709C139.048 92.3796 138.474 92.3796 137.9 92.3796C137.326 92.3796 136.752 92.3796 136.179 92.5709C135.605 92.7621 135.222 92.9534 134.84 93.1447C134.457 93.3359 134.266 93.5272 133.884 93.7184C133.692 93.9097 133.501 93.9097 133.31 93.9097H133.118L132.927 93.7184C132.927 93.7184 132.927 93.5272 132.736 93.3359C132.736 93.1447 132.736 93.1447 132.736 92.9534C132.736 92.7621 132.736 92.5709 132.736 92.3796C132.736 92.1884 132.927 91.9971 132.927 91.9971C133.118 91.8058 133.31 91.6146 133.692 91.6146C134.075 91.4233 134.457 91.232 134.84 91.0408C135.222 90.8495 135.796 90.8495 136.179 90.6583C136.752 90.467 137.135 90.467 137.709 90.467C138.665 90.467 139.43 90.6583 140.195 90.8495C140.96 91.0408 141.343 91.4233 141.917 91.8058C142.299 92.1883 142.682 92.7621 142.873 93.5272C143.064 94.101 143.064 94.866 143.064 95.8223V104.429H143.829ZM141.343 98.1175H139.239C138.474 98.1175 137.9 98.1175 137.517 98.3087C136.944 98.5 136.561 98.6913 136.179 98.8825C135.796 99.0738 135.605 99.4563 135.414 99.6476C135.222 100.03 135.222 100.413 135.222 100.795C135.222 101.56 135.414 102.134 135.796 102.517C136.179 102.899 136.944 103.09 137.709 103.09C138.283 103.09 139.048 102.899 139.43 102.517C140.004 102.134 140.578 101.56 141.151 100.986V98.1175H141.343Z" fill="#0FADCE" stroke="#0FADCE" stroke-miterlimit="10"/>
<path d="M150.715 104.429V104.62L150.523 104.812C150.523 104.812 150.332 104.812 150.141 104.812C149.95 104.812 149.758 104.812 149.567 104.812C149.376 104.812 149.184 104.812 148.993 104.812C148.802 104.812 148.611 104.812 148.611 104.812C148.611 104.812 148.419 104.812 148.419 104.62V104.429V83.7728V83.5815L148.611 83.3903C148.611 83.3903 148.802 83.3903 148.993 83.3903C149.184 83.3903 149.376 83.3903 149.567 83.3903C149.758 83.3903 149.95 83.3903 150.141 83.3903C150.332 83.3903 150.332 83.3903 150.523 83.3903C150.523 83.3903 150.715 83.3903 150.715 83.5815V83.7728V104.429Z" fill="#0FADCE" stroke="#0FADCE" stroke-miterlimit="10"/>
<path d="M162.382 103.473C162.382 103.855 162.382 104.047 162.382 104.238C162.382 104.429 162.19 104.62 162.19 104.62C162.19 104.62 161.999 104.812 161.808 104.812C161.617 104.812 161.425 105.003 161.234 105.003C161.043 105.003 160.851 105.003 160.66 105.194C160.469 105.194 160.278 105.194 159.895 105.194C159.13 105.194 158.556 105.003 158.174 105.003C157.6 104.812 157.217 104.429 157.026 104.047C156.644 103.664 156.452 103.09 156.261 102.516C156.07 101.943 156.07 101.178 156.07 100.413V92.1883H154.157C153.966 92.1883 153.966 92.1883 153.775 91.9971C153.583 91.8058 153.583 91.6145 153.583 91.232C153.583 91.0408 153.583 90.8495 153.583 90.6582C153.583 90.467 153.583 90.467 153.775 90.2757C153.775 90.2757 153.775 90.0845 153.966 90.0845H154.157H156.07V86.833V86.6417L156.261 86.4505C156.261 86.4505 156.452 86.4505 156.644 86.2592C156.835 86.2592 157.026 86.2592 157.217 86.2592C157.409 86.2592 157.6 86.2592 157.791 86.2592C157.983 86.2592 157.983 86.2592 158.174 86.4505L158.365 86.6417V86.833V90.0845H161.808H161.999L162.19 90.2757C162.19 90.2757 162.19 90.467 162.382 90.6582C162.382 90.8495 162.382 91.0408 162.382 91.232C162.382 91.6145 162.382 91.8058 162.19 91.9971C162.19 92.1883 161.999 92.1883 161.808 92.1883H158.365V100.03C158.365 100.986 158.556 101.751 158.748 102.134C158.939 102.708 159.513 102.899 160.278 102.899C160.469 102.899 160.66 102.899 160.851 102.899C161.043 102.899 161.234 102.899 161.425 102.708C161.617 102.708 161.617 102.516 161.808 102.516C161.999 102.516 161.999 102.516 161.999 102.516H162.19C162.19 102.516 162.19 102.516 162.382 102.708C162.382 102.708 162.382 102.899 162.382 103.09C162.382 103.09 162.382 103.282 162.382 103.473Z" fill="#0FADCE" stroke="#0FADCE" stroke-miterlimit="10"/>
<path d="M177.3 104.429V104.62L177.109 104.812C177.109 104.812 176.917 104.812 176.726 104.812C176.535 104.812 176.344 104.812 176.152 104.812C175.961 104.812 175.77 104.812 175.579 104.812C175.387 104.812 175.387 104.812 175.196 104.812C175.196 104.812 175.005 104.812 175.005 104.62V104.429V96.2048C175.005 95.4398 175.005 94.866 174.814 94.2922C174.622 93.7184 174.431 93.3359 174.24 92.9534C174.048 92.5709 173.666 92.3796 173.283 92.1883C172.901 91.9971 172.518 91.9971 171.945 91.9971C171.371 91.9971 170.797 92.1883 170.032 92.7621C169.458 93.1446 168.693 93.9097 168.119 94.6747V104.429V104.62L167.928 104.812C167.928 104.812 167.737 104.812 167.546 104.812C167.354 104.812 167.163 104.812 166.972 104.812C166.781 104.812 166.589 104.812 166.398 104.812C166.207 104.812 166.015 104.812 166.015 104.812C166.015 104.812 165.824 104.812 165.824 104.62V104.429V83.7728V83.5815L166.015 83.3903C166.015 83.3903 166.207 83.3903 166.398 83.3903C166.589 83.3903 166.781 83.3903 166.972 83.3903C167.163 83.3903 167.354 83.3903 167.546 83.3903C167.737 83.3903 167.737 83.3903 167.928 83.3903C167.928 83.3903 168.119 83.3903 168.119 83.5815C168.119 83.7728 168.119 83.7728 168.119 83.7728V92.1883C168.884 91.4233 169.458 90.8495 170.223 90.467C170.988 90.0844 171.753 89.8932 172.327 89.8932C173.283 89.8932 174.048 90.0844 174.622 90.2757C175.196 90.6582 175.77 91.0408 176.152 91.6145C176.535 92.1883 176.726 92.7621 176.917 93.5272C177.109 94.2922 177.109 95.0573 177.109 96.0136V104.429H177.3Z" fill="#0FADCE" stroke="#0FADCE" stroke-miterlimit="10"/>
<path d="M145.359 69.6194H126.233L127.189 49.5369V44.1815L117.053 43.9903L108.254 44.3728V47.433L109.02 69.6194H89.8933L90.8496 49.5369L89.8933 1.14753H109.211L108.637 27.1592L118.2 27.3504L126.998 27.1592L126.616 1.14753H145.742L144.786 47.433L145.359 69.6194Z" fill="#0FADCE"/>
<path d="M80.3301 8.79806C85.8767 14.5359 88.5544 22.7602 88.5544 33.0883C88.5544 44.7553 85.4942 53.7447 79.5651 60.0563C73.6359 66.368 65.0291 69.6194 53.9359 69.6194C43.799 69.6194 36.1486 66.7505 30.602 60.8214C25.0554 55.0835 22.3777 46.668 22.3777 35.9573C22.3777 24.4816 25.4379 15.6835 31.367 9.37184C37.2961 3.06019 45.9029 0 56.9961 0C66.9418 0 74.7835 2.86893 80.3301 8.79806ZM48.7719 17.9786C47.433 18.9349 46.2855 20.465 45.7117 22.9515C45.1379 25.2466 44.7554 28.6893 44.7554 33.2796C44.7554 39.0175 45.1379 43.4165 45.7117 46.2854C46.2855 49.3456 47.433 51.2582 48.9631 52.4058C50.4932 53.5534 52.7884 54.1272 55.6573 54.1272C58.5262 54.1272 60.6301 53.7447 61.9689 52.7883C63.3078 51.832 64.4554 50.1107 65.0291 47.8155C65.6029 45.5204 65.9855 42.0777 65.9855 37.4874C65.9855 31.7495 65.6029 27.5417 65.0291 24.4816C64.4554 21.4214 63.3078 19.5087 61.7777 18.3612C60.2476 17.2136 57.9524 16.6398 55.0835 16.6398C52.2146 16.6398 50.1107 17.0223 48.7719 17.9786Z" fill="#0FADCE"/>
<path d="M102.325 17.9786C105.577 20.465 107.107 23.9078 107.107 28.4981C107.107 31.1757 106.342 34.2359 104.812 37.4874C103.282 40.7388 100.795 44.5641 97.3524 48.9631L92.9534 55.2748L93.1447 55.6573H100.221L109.211 54.701L110.167 55.8485L108.063 70.5757L94.6748 69.8107H73.4447L70.1932 70.002L69.2369 69.8107V58.7175L80.5214 45.7116C83.3903 42.2689 85.4942 39.7825 86.6418 37.8699C87.9806 36.1485 88.5544 34.4272 88.5544 33.0883C88.5544 30.9845 87.4068 29.8369 85.3029 29.8369C83.7728 29.8369 82.0515 30.4107 79.9476 31.367C77.8437 32.5146 75.7398 33.8534 74.0185 35.5748H72.1058L69.0457 21.4214C76.8874 16.6398 83.9641 14.3447 90.467 14.3447C95.2486 14.3447 99.2651 15.4922 102.325 17.9786Z" fill="white"/>
</svg>
